<svg width="413" height="71" viewBox="0 0 413 71" fill="none" xmlns="http://www.w3.org/2000/svg">
<path d="M104.672 20.2416V31.0021H119.302V37.8236H104.672V49.1991H121.171V56.2063H95.9531V13.2344H121.171V20.2416H104.672Z" fill="white"/>
<path d="M127.728 29.9236C129.111 27.3505 131.205 25.2181 133.768 23.7748C136.469 22.2892 139.52 21.5378 142.611 21.597C146.884 21.597 150.421 22.6516 153.224 24.7612C156.097 26.9812 158.092 30.1246 158.862 33.6451H149.455C149.018 32.2482 148.135 31.0283 146.938 30.167C145.65 29.2882 144.111 28.8395 142.546 28.886C141.416 28.841 140.292 29.0596 139.264 29.5235C138.236 29.9875 137.333 30.6843 136.629 31.5571C135.176 33.3375 134.449 35.8739 134.449 39.1471C134.449 42.42 135.176 44.9118 136.629 46.6794C137.333 47.5529 138.235 48.2505 139.264 48.7156C140.291 49.1808 141.416 49.4003 142.546 49.3568C146.075 49.3568 148.378 47.7982 149.455 44.681H158.862C158.038 48.1631 156.038 51.2645 153.192 53.4752C150.368 55.6443 146.841 56.7289 142.611 56.7289C139.52 56.7885 136.469 56.037 133.768 54.5513C131.205 53.1083 129.111 50.9758 127.728 48.4023C126.224 45.5477 125.474 42.364 125.548 39.1471C125.479 35.9407 126.229 32.7686 127.728 29.9236Z" fill="white"/>
<path d="M171.587 54.5738C168.952 53.1397 166.783 50.9963 165.333 48.393C163.776 45.5662 162.994 42.387 163.063 39.1697C162.998 35.9479 163.801 32.767 165.391 29.9527C166.891 27.3426 169.103 25.201 171.775 23.7718C174.564 22.3408 177.66 21.5938 180.803 21.5938C183.946 21.5938 187.042 22.3408 189.83 23.7718C192.503 25.201 194.715 27.3426 196.214 29.9527C197.81 32.7653 198.616 35.9471 198.55 39.1697C198.617 42.4019 197.789 45.5907 196.156 48.393C194.611 51.0035 192.366 53.1425 189.669 54.5738C186.863 56.049 183.725 56.7981 180.547 56.7518C177.42 56.7993 174.334 56.049 171.587 54.5738ZM185.01 48.1175C186.431 47.3221 187.587 46.1361 188.338 44.7039C189.216 42.9911 189.644 41.0881 189.584 39.1697C189.584 35.933 188.719 33.4436 186.989 31.7014C186.177 30.8565 185.196 30.1876 184.108 29.7377C183.021 29.2878 181.849 29.0666 180.67 29.0881C179.499 29.0627 178.335 29.2823 177.256 29.7328C176.177 30.1832 175.207 30.8541 174.41 31.7014C172.749 33.4436 171.918 35.933 171.918 39.1697C171.918 42.4063 172.738 44.896 174.377 46.6383C175.159 47.488 176.117 48.1614 177.186 48.6125C178.255 49.0636 179.41 49.2814 180.573 49.2516C182.126 49.2545 183.654 48.8638 185.01 48.1175Z" fill="white"/>
<path d="M234.052 25.5033C236.583 28.0653 237.848 31.6416 237.848 36.2318V56.2095H229.129V37.3976C229.129 34.6947 228.446 32.615 227.077 31.159C226.355 30.4216 225.483 29.8452 224.516 29.4686C223.547 29.0919 222.51 28.9236 221.473 28.9748C220.421 28.921 219.37 29.0877 218.388 29.4642C217.406 29.8408 216.516 30.4183 215.777 31.159C214.384 32.615 213.688 34.6947 213.688 37.3976V56.2095H204.969V22.1535H213.688V26.3936C214.871 24.9034 216.396 23.7133 218.139 22.9221C219.999 22.0634 222.034 21.6258 224.088 21.641C228.195 21.6539 231.519 22.9412 234.052 25.5033Z" fill="white"/>
<path d="M259.7 48.2671L268.432 22.1406H277.709L264.928 56.1967H254.349L241.645 22.1406H250.987L259.7 48.2671Z" fill="white"/>
<path d="M314.224 41.7732H289.008C289.091 43.9524 290.02 46.016 291.602 47.538C293.146 48.9327 295.178 49.6813 297.271 49.6262C300.512 49.6262 302.814 48.2532 304.18 45.5074H313.6C312.636 48.7466 310.623 51.5855 307.873 53.5907C305.052 55.7043 301.593 56.7591 297.491 56.755C294.372 56.8054 291.292 56.0547 288.553 54.5774C285.939 53.1437 283.801 50.9979 282.389 48.3962C280.873 45.5565 280.111 42.3825 280.176 39.173C280.106 35.9479 280.855 32.7567 282.356 29.8919C283.742 27.2995 285.864 25.1625 288.463 23.743C291.235 22.2749 294.346 21.5359 297.491 21.5973C300.558 21.5552 303.585 22.2826 306.289 23.7109C308.844 25.0648 310.94 27.1264 312.324 29.6421C313.791 32.3455 314.534 35.3757 314.476 38.4428C314.488 39.5578 314.402 40.6721 314.224 41.7732ZM305.446 36.0088C305.465 35.0007 305.257 34.0009 304.837 33.0818C304.418 32.1625 303.796 31.3466 303.02 30.6924C301.401 29.3469 299.341 28.6356 297.225 28.694C295.229 28.6312 293.282 29.3179 291.778 30.6158C290.242 32.0223 289.28 33.9328 289.071 35.9895L305.446 36.0088Z" fill="white"/>
<path d="M334.943 23.1956C336.835 22.1486 338.972 21.618 341.141 21.6584V30.696H338.836C336.09 30.696 334.025 31.3365 332.641 32.6175C331.257 33.8986 330.561 36.1105 330.552 39.2532V56.2075H321.84V22.1517H330.552V27.4358C331.628 25.6775 333.14 24.2184 334.943 23.1956Z" fill="white"/>
<path d="M352.604 55.2664C350.504 54.374 348.672 52.9676 347.277 51.1798C346.009 49.5339 345.267 47.5512 345.148 45.4859H353.907C353.986 46.1327 354.199 46.7562 354.535 47.3172C354.869 47.8782 355.319 48.3647 355.853 48.7461C357.092 49.6321 358.595 50.0828 360.121 50.0272C361.492 50.1029 362.852 49.7586 364.014 49.0409C364.447 48.7719 364.8 48.3989 365.047 47.9575C365.291 47.5161 365.418 47.0204 365.416 46.5173C365.42 45.9805 365.258 45.4553 364.95 45.0119C364.645 44.5681 364.21 44.2266 363.704 44.032C361.947 43.2656 360.121 42.6591 358.254 42.2193C356.104 41.7308 353.99 41.0884 351.934 40.2979C350.315 39.6389 348.879 38.6067 347.745 37.2873C346.563 35.9381 345.972 34.1147 345.972 31.8174C345.959 29.9681 346.535 28.1618 347.62 26.6548C348.819 25.0154 350.458 23.7379 352.349 22.9656C354.645 22.0177 357.116 21.5572 359.603 21.6141C363.717 21.6141 366.997 22.6282 369.444 24.6564C370.661 25.6702 371.65 26.9237 372.347 28.3366C373.045 29.7496 373.434 31.2908 373.493 32.8615H365.117C365.073 32.2394 364.9 31.6333 364.603 31.0819C364.308 30.5303 363.9 30.0457 363.406 29.6588C362.224 28.8094 360.783 28.3865 359.324 28.4612C358.052 28.3858 356.785 28.6844 355.684 29.3195C355.275 29.5736 354.939 29.9288 354.713 30.3502C354.485 30.7715 354.373 31.244 354.388 31.7214C354.392 32.2787 354.564 32.8222 354.882 33.282C355.203 33.742 355.653 34.0972 356.178 34.3026C357.914 35.0978 359.728 35.7076 361.595 36.1217C363.693 36.6173 365.752 37.2594 367.757 38.0432C369.387 38.7084 370.829 39.7521 371.962 41.0856C373.201 42.6297 373.851 44.5544 373.798 46.5234C373.823 48.4146 373.245 50.266 372.144 51.8142C370.947 53.4485 369.308 54.7159 367.415 55.4714C362.645 57.293 357.349 57.2266 352.628 55.2858L352.604 55.2664Z" fill="white"/>
<path d="M412.748 41.7732H387.531C387.614 43.9528 388.543 46.0172 390.127 47.538C391.669 48.9323 393.699 49.6805 395.79 49.6262C399.028 49.6262 401.333 48.2532 402.699 45.5074H412.107C411.141 48.7454 409.127 51.5835 406.38 53.5907C403.557 55.7043 400.098 56.7591 395.997 56.755C392.88 56.8058 389.8 56.0555 387.065 54.5774C384.448 53.1461 382.309 50.9995 380.901 48.3962C379.381 45.5577 378.618 42.3829 378.688 39.173C378.616 35.9479 379.367 32.7567 380.868 29.8919C382.252 27.3 384.371 25.163 386.966 23.743C389.74 22.2749 392.851 21.5359 395.997 21.5973C399.077 21.5487 402.119 22.2762 404.834 23.7109C407.391 25.0643 409.489 27.126 410.875 29.6421C412.333 32.3485 413.062 35.3783 412.997 38.4428C413.005 39.5576 412.921 40.6717 412.748 41.7732ZM403.964 36.0088C403.984 35.0007 403.775 34.0009 403.356 33.0818C402.937 32.1625 402.315 31.3466 401.537 30.6924C399.925 29.3427 397.864 28.6268 395.751 28.6813C393.754 28.6185 391.806 29.3052 390.301 30.6028C388.765 32.0087 387.801 33.9195 387.59 35.9767L403.964 36.0088Z" fill="white"/>
<path d="M71.1823 17.5692V52.7204L53.38 70.2959L35.5911 52.7269L53.38 35.1447L62.4501 44.099V26.1906L53.38 35.1447L35.5781 17.5692L53.38 0L71.1823 17.5692Z" fill="#8C7ABA"/>
<path d="M53.4012 35.1395L35.6054 52.7218L35.599 52.7149L29.4356 46.6239L17.7969 35.1395L29.4226 23.668L35.599 17.5703L53.4012 35.1395Z" fill="#FF7D04"/>
<path d="M23.9719 64.2104L17.802 70.3083H17.7956L0 52.7324V17.5812L17.7826 0.03125L23.9523 6.09051L17.7956 12.2074L6.17623 23.6788V23.6854L8.73237 26.2154L17.7956 35.1569L8.73237 44.1114L6.17623 46.6414L23.9719 64.2104Z" fill="#FF7D04"/>
<path d="M35.599 17.5753L29.4226 23.673L17.7969 12.195L23.9602 6.07812L35.599 17.5753Z" fill="#FFD4AD"/>
<path d="M35.599 52.7303L23.9731 64.2083L17.7969 58.1109L29.4292 46.6328L35.5924 52.7242L35.599 52.7303Z" fill="#FFD4AD"/>
</svg>
