<svg width="1026" height="175" viewBox="0 0 1026 175" fill="none" xmlns="http://www.w3.org/2000/svg">
<path d="M259.904 50.2505V76.9688H296.229V93.9068H259.904V122.152H300.869V139.551H238.254V32.8516H300.869V50.2505H259.904Z" fill="black"/>
<path d="M317.144 74.2923C320.577 67.9034 325.778 62.6087 332.141 59.025C338.847 55.3361 346.423 53.4704 354.098 53.6174C364.708 53.6174 373.492 56.2361 380.451 61.4741C387.584 66.9865 392.537 74.7914 394.45 83.5328H371.092C370.006 80.0643 367.814 77.0354 364.842 74.8967C361.644 72.7148 357.822 71.6005 353.936 71.7161C351.132 71.6043 348.341 72.147 345.788 73.299C343.236 74.451 340.994 76.1812 339.245 78.3483C335.637 82.7692 333.832 89.067 333.832 97.1943C333.832 105.321 335.637 111.508 339.245 115.897C340.993 118.066 343.234 119.798 345.787 120.953C348.339 122.108 351.131 122.653 353.936 122.545C362.7 122.545 368.418 118.675 371.092 110.935H394.45C392.404 119.581 387.439 127.282 380.371 132.771C373.358 138.157 364.601 140.85 354.098 140.85C346.423 140.998 338.847 139.132 332.141 135.443C325.778 131.86 320.577 126.565 317.144 120.175C313.409 113.087 311.547 105.182 311.731 97.1943C311.559 89.2328 313.421 81.3565 317.144 74.2923Z" fill="black"/>
<path d="M426.048 135.499C419.505 131.938 414.12 126.616 410.519 120.152C406.654 113.133 404.71 105.239 404.882 97.2505C404.72 89.2508 406.716 81.3527 410.664 74.3648C414.387 67.8838 419.88 62.5661 426.515 59.0174C433.439 55.4643 441.128 53.6094 448.931 53.6094C456.734 53.6094 464.423 55.4643 471.346 59.0174C477.982 62.5661 483.474 67.8838 487.197 74.3648C491.159 81.3483 493.161 89.2487 492.996 97.2505C493.162 105.276 491.106 113.194 487.053 120.152C483.215 126.634 477.641 131.945 470.944 135.499C463.978 139.162 456.186 141.022 448.295 140.907C440.531 141.025 432.869 139.162 426.048 135.499ZM459.377 119.468C462.905 117.493 465.776 114.548 467.641 110.992C469.821 106.739 470.884 102.014 470.734 97.2505C470.734 89.2138 468.586 83.0327 464.291 78.7067C462.275 76.6088 459.839 74.9479 457.138 73.8308C454.437 72.7138 451.529 72.1645 448.601 72.2179C445.692 72.1547 442.804 72.7001 440.124 73.8188C437.445 74.937 435.036 76.6028 433.056 78.7067C428.932 83.0327 426.87 89.2138 426.87 97.2505C426.87 105.287 428.905 111.469 432.975 115.795C434.916 117.905 437.295 119.577 439.95 120.697C442.605 121.817 445.473 122.358 448.359 122.284C452.215 122.291 456.009 121.321 459.377 119.468Z" fill="black"/>
<path d="M581.148 63.3253C587.432 69.6869 590.573 78.5669 590.573 89.9642V139.569H568.924V92.8589C568.924 86.1477 567.228 80.9838 563.83 77.3686C562.035 75.5375 559.87 74.1062 557.47 73.1713C555.064 72.2358 552.49 71.818 549.915 71.9451C547.302 71.8115 544.692 72.2255 542.254 73.1604C539.816 74.0953 537.606 75.5293 535.771 77.3686C532.313 80.9838 530.584 86.1477 530.584 92.8589V139.569H508.934V55.0077H530.584V65.536C533.521 61.8357 537.309 58.8809 541.635 56.9162C546.255 54.784 551.306 53.6975 556.406 53.7353C566.606 53.7672 574.859 56.9637 581.148 63.3253Z" fill="black"/>
<path d="M644.831 119.841L666.513 54.9688H689.547L657.813 139.53H631.544L600 54.9688H623.198L644.831 119.841Z" fill="black"/>
<path d="M780.219 103.715H717.607C717.814 109.126 720.121 114.25 724.048 118.029C727.883 121.492 732.928 123.351 738.126 123.214C746.172 123.214 751.888 119.805 755.281 112.987H778.67C776.276 121.03 771.279 128.079 764.45 133.058C757.446 138.306 748.856 140.925 738.672 140.915C730.927 141.04 723.279 139.176 716.477 135.508C709.987 131.948 704.679 126.62 701.172 120.16C697.408 113.109 695.516 105.228 695.679 97.2587C695.505 89.2509 697.365 81.3271 701.09 74.2138C704.532 67.7769 709.801 62.4707 716.254 58.946C723.137 55.3007 730.861 53.4658 738.672 53.6182C746.287 53.5138 753.803 55.3198 760.517 58.8663C766.861 62.228 772.065 67.3471 775.501 73.5936C779.145 80.306 780.988 87.83 780.846 95.4456C780.874 98.2143 780.661 100.981 780.219 103.715ZM758.423 89.402C758.472 86.8989 757.954 84.4165 756.912 82.1343C755.87 79.8516 754.326 77.8258 752.401 76.2014C748.381 72.8605 743.265 71.0943 738.012 71.2394C733.054 71.0834 728.221 72.7885 724.485 76.0111C720.672 79.5036 718.283 84.2474 717.765 89.354L758.423 89.402Z" fill="black"/>
<path d="M831.669 57.6034C836.366 55.0038 841.673 53.6862 847.057 53.7866V76.2269H841.335C834.516 76.2269 829.389 77.8174 825.953 80.998C822.516 84.179 820.787 89.6712 820.766 97.4745V139.572H799.133V55.0114H820.766V68.1318C823.438 63.766 827.191 60.143 831.669 57.6034Z" fill="black"/>
<path d="M875.517 137.219C870.302 135.003 865.753 131.511 862.289 127.072C859.142 122.985 857.298 118.062 857.004 112.934H878.751C878.948 114.54 879.477 116.088 880.311 117.481C881.14 118.874 882.258 120.082 883.584 121.029C886.66 123.229 890.391 124.348 894.182 124.21C897.586 124.398 900.962 123.543 903.848 121.761C904.922 121.093 905.8 120.167 906.411 119.071C907.017 117.975 907.333 116.744 907.328 115.495C907.338 114.162 906.935 112.858 906.171 111.757C905.413 110.655 904.333 109.807 903.078 109.324C898.715 107.421 894.182 105.915 889.546 104.823C884.206 103.61 878.958 102.015 873.853 100.052C869.833 98.4159 866.266 95.8528 863.451 92.5768C860.517 89.2266 859.049 84.6993 859.049 78.995C859.017 74.4033 860.446 69.9181 863.14 66.1762C866.118 62.1055 870.188 58.9337 874.884 57.0159C880.584 54.6622 886.72 53.5189 892.895 53.6601C903.111 53.6601 911.255 56.1781 917.331 61.2142C920.353 63.7315 922.808 66.8439 924.537 70.3522C926.271 73.8606 927.237 77.6875 927.384 81.5875H906.586C906.477 80.0428 906.046 78.5379 905.309 77.1688C904.578 75.7992 903.564 74.5959 902.337 73.6353C899.402 71.5261 895.824 70.4761 892.202 70.6615C889.044 70.4744 885.897 71.2157 883.164 72.7926C882.149 73.4237 881.315 74.3057 880.753 75.3519C880.186 76.3981 879.908 77.5713 879.946 78.7566C879.957 80.1404 880.382 81.4899 881.173 82.6315C881.969 83.7737 883.088 84.6557 884.391 85.1657C888.7 87.1402 893.206 88.6544 897.842 89.6826C903.051 90.9132 908.162 92.5075 913.142 94.4537C917.189 96.1053 920.768 98.6968 923.582 102.008C926.658 105.842 928.273 110.621 928.142 115.51C928.202 120.206 926.768 124.803 924.035 128.647C921.062 132.705 916.993 135.852 912.291 137.728C900.449 142.251 887.298 142.086 875.577 137.267L875.517 137.219Z" fill="black"/>
<path d="M1024.85 103.715H962.236C962.443 109.127 964.751 114.253 968.683 118.029C972.512 121.491 977.552 123.349 982.745 123.214C990.785 123.214 996.507 119.805 999.9 112.987H1023.26C1020.86 121.027 1015.86 128.074 1009.04 133.058C1002.03 138.306 993.441 140.925 983.258 140.915C975.518 141.041 967.871 139.178 961.08 135.508C954.583 131.954 949.271 126.624 945.774 120.16C942 113.112 940.107 105.229 940.281 97.2587C940.101 89.2509 941.967 81.3271 945.692 74.2138C949.129 67.778 954.392 62.4718 960.834 58.946C967.723 55.3007 975.447 53.4658 983.258 53.6182C990.905 53.4976 998.46 55.304 1005.2 58.8663C1011.55 62.2269 1016.76 67.346 1020.2 73.5936C1023.82 80.3136 1025.63 87.8365 1025.47 95.4456C1025.49 98.2138 1025.28 100.98 1024.85 103.715ZM1003.04 89.402C1003.09 86.8989 1002.57 84.4165 1001.53 82.1343C1000.49 79.8516 998.945 77.8258 997.014 76.2014C993.011 72.8502 987.894 71.0725 982.647 71.2078C977.689 71.0518 972.851 72.7569 969.114 75.9789C965.301 79.4698 962.907 84.2142 962.383 89.3223L1003.04 89.402Z" fill="black"/>
<path d="M176.745 43.6244V130.905L132.542 174.545L88.372 130.921L132.542 87.2645L155.063 109.498V65.0313L132.542 87.2645L88.3398 43.6244L132.542 0L176.745 43.6244Z" fill="#8C7ABA"/>
<path d="M132.597 87.2572L88.41 130.914L88.3942 130.897L73.0904 115.773L44.1914 87.2572L73.0582 58.7735L88.3942 43.6328L132.597 87.2572Z" fill="#FF7D04"/>
<path d="M59.5222 159.443L44.2025 174.584H44.1865L0 130.943V43.6626L44.1542 0.0859375L59.4736 15.1311L44.1865 30.3193L15.3356 58.8029V58.8193L21.6825 65.1013L44.1865 87.3029L21.6825 109.537L15.3356 115.819L59.5222 159.443Z" fill="#FF7D04"/>
<path d="M88.3942 43.6335L73.0582 58.774L44.1914 30.2742L59.4949 15.0859L88.3942 43.6335Z" fill="#FFD4AD"/>
<path d="M88.3942 130.921L59.5271 159.421L44.1914 144.281L73.0745 115.781L88.3778 130.906L88.3942 130.921Z" fill="#FFD4AD"/>
</svg>
